<svg xmlns="http://www.w3.org/2000/svg" viewBox="0 0 1280 200" width="1280" height="200">
  <defs>
    <!-- Grid pattern (very subtle) -->
    <pattern id="gridPatternMin" width="32" height="32" patternUnits="userSpaceOnUse">
      <path d="M 32 0 L 0 0 0 32" fill="none" stroke="#1A1A22" stroke-width="0.4"/>
    </pattern>

    <!-- Icon container background gradient -->
    <linearGradient id="iconBgMin" x1="0" y1="0" x2="0" y2="1">
      <stop offset="0%" stop-color="#131318"/>
      <stop offset="100%" stop-color="#0E0E12"/>
    </linearGradient>

    <!-- Curve stroke gradient -->
    <linearGradient id="curveGradMin" x1="0" y1="0" x2="1" y2="0">
      <stop offset="0%" stop-color="#4DD9FF" stop-opacity="0.3"/>
      <stop offset="15%" stop-color="#4DD9FF" stop-opacity="0.7"/>
      <stop offset="50%" stop-color="#6AE4FF"/>
      <stop offset="85%" stop-color="#4DD9FF" stop-opacity="0.7"/>
      <stop offset="100%" stop-color="#4DD9FF" stop-opacity="0.3"/>
    </linearGradient>

    <!-- Under-curve fill -->
    <linearGradient id="curveFillMin" x1="0" y1="0" x2="0" y2="1">
      <stop offset="0%" stop-color="#4DD9FF" stop-opacity="0.06"/>
      <stop offset="70%" stop-color="#4DD9FF" stop-opacity="0.02"/>
      <stop offset="100%" stop-color="#4DD9FF" stop-opacity="0"/>
    </linearGradient>

    <!-- Curve outer glow -->
    <filter id="curveGlowMin" x="-30%" y="-50%" width="160%" height="200%">
      <feGaussianBlur in="SourceGraphic" stdDeviation="5" result="blur1"/>
      <feColorMatrix in="blur1" type="matrix"
        values="0 0 0 0 0.302
                0 0 0 0 0.851
                0 0 0 0 1
                0 0 0 0.5 0" result="glow1"/>
      <feGaussianBlur in="SourceGraphic" stdDeviation="2" result="blur2"/>
      <feColorMatrix in="blur2" type="matrix"
        values="0 0 0 0 0.302
                0 0 0 0 0.851
                0 0 0 0 1
                0 0 0 0.8 0" result="glow2"/>
      <feMerge>
        <feMergeNode in="glow1"/>
        <feMergeNode in="glow2"/>
        <feMergeNode in="SourceGraphic"/>
      </feMerge>
    </filter>

    <!-- Wide ambient glow -->
    <filter id="curveGlowWideMin" x="-50%" y="-80%" width="200%" height="260%">
      <feGaussianBlur in="SourceGraphic" stdDeviation="16" result="blur"/>
      <feColorMatrix in="blur" type="matrix"
        values="0 0 0 0 0.302
                0 0 0 0 0.851
                0 0 0 0 1
                0 0 0 0.25 0"/>
    </filter>

    <!-- Point halo -->
    <filter id="pointHaloMin" x="-200%" y="-200%" width="500%" height="500%">
      <feGaussianBlur in="SourceGraphic" stdDeviation="3.5" result="blur"/>
      <feColorMatrix in="blur" type="matrix"
        values="0 0 0 0 0.302
                0 0 0 0 0.851
                0 0 0 0 1
                0 0 0 0.6 0" result="halo"/>
      <feMerge>
        <feMergeNode in="halo"/>
        <feMergeNode in="SourceGraphic"/>
      </feMerge>
    </filter>

    <!-- Subtle text glow -->
    <filter id="textGlowMin" x="-5%" y="-15%" width="110%" height="130%">
      <feGaussianBlur in="SourceGraphic" stdDeviation="1.5" result="blur"/>
      <feColorMatrix in="blur" type="matrix"
        values="0 0 0 0 0.302
                0 0 0 0 0.851
                0 0 0 0 1
                0 0 0 0.3 0" result="glow"/>
      <feMerge>
        <feMergeNode in="glow"/>
        <feMergeNode in="SourceGraphic"/>
      </feMerge>
    </filter>

    <!-- Icon grid pattern -->
    <pattern id="iconGridMin" width="18" height="18" patternUnits="userSpaceOnUse" x="44" y="40">
      <path d="M 18 0 L 0 0 0 18" fill="none" stroke="#1A1A22" stroke-width="0.5"/>
    </pattern>

    <!-- Icon clip path -->
    <clipPath id="iconClipMin">
      <rect x="44" y="40" width="120" height="120" rx="20"/>
    </clipPath>

    <!-- Icon curve fill -->
    <linearGradient id="iconCurveFill" x1="0" y1="0" x2="0" y2="1">
      <stop offset="0%" stop-color="#4DD9FF" stop-opacity="0.10"/>
      <stop offset="100%" stop-color="#4DD9FF" stop-opacity="0.01"/>
    </linearGradient>

    <!-- Icon curve glow -->
    <filter id="iconCurveGlow" x="-40%" y="-40%" width="180%" height="180%">
      <feGaussianBlur in="SourceGraphic" stdDeviation="4" result="blur1"/>
      <feColorMatrix in="blur1" type="matrix"
        values="0 0 0 0 0.302
                0 0 0 0 0.851
                0 0 0 0 1
                0 0 0 0.55 0" result="glow1"/>
      <feGaussianBlur in="SourceGraphic" stdDeviation="1.8" result="blur2"/>
      <feColorMatrix in="blur2" type="matrix"
        values="0 0 0 0 0.302
                0 0 0 0 0.851
                0 0 0 0 1
                0 0 0 0.85 0" result="glow2"/>
      <feMerge>
        <feMergeNode in="glow1"/>
        <feMergeNode in="glow2"/>
        <feMergeNode in="SourceGraphic"/>
      </feMerge>
    </filter>

    <!-- Icon point halo -->
    <filter id="iconPointHalo" x="-200%" y="-200%" width="500%" height="500%">
      <feGaussianBlur in="SourceGraphic" stdDeviation="3" result="blur"/>
      <feColorMatrix in="blur" type="matrix"
        values="0 0 0 0 0.302
                0 0 0 0 0.851
                0 0 0 0 1
                0 0 0 0.6 0" result="halo"/>
      <feMerge>
        <feMergeNode in="halo"/>
        <feMergeNode in="SourceGraphic"/>
      </feMerge>
    </filter>
  </defs>

  <!-- ============================================ -->
  <!-- BACKGROUND                                   -->
  <!-- ============================================ -->
  <rect width="1280" height="200" fill="#0C0C10"/>

  <!-- Very subtle grid behind everything -->
  <rect width="1280" height="200" fill="url(#gridPatternMin)" opacity="0.35"/>

  <!-- Top border line -->
  <line x1="0" y1="1" x2="1280" y2="1" stroke="#4DD9FF" stroke-opacity="0.08" stroke-width="1"/>

  <!-- Bottom border line -->
  <line x1="0" y1="199" x2="1280" y2="199" stroke="#4DD9FF" stroke-opacity="0.08" stroke-width="1"/>

  <!-- ============================================ -->
  <!-- LEFT SIDE: LOGO ICON                         -->
  <!-- ============================================ -->
  <g>
    <!-- Icon container -->
    <rect x="44" y="40" width="120" height="120" rx="20" fill="url(#iconBgMin)"/>

    <!-- Icon grid -->
    <g clip-path="url(#iconClipMin)">
      <rect x="44" y="40" width="120" height="120" fill="url(#iconGridMin)"/>
    </g>

    <!-- Icon border -->
    <rect x="44" y="40" width="120" height="120" rx="20"
          fill="none" stroke="#4DD9FF" stroke-opacity="0.12" stroke-width="1"/>

    <!-- Icon: S-curve with glow -->
    <g clip-path="url(#iconClipMin)">
      <!-- Under-curve fill -->
      <path d="M 60 135 C 78 135, 82 60, 104 90 C 126 120, 130 55, 148 50 L 148 160 L 60 160 Z"
            fill="url(#iconCurveFill)"/>

      <!-- Wide ambient glow -->
      <path d="M 60 135 C 78 135, 82 60, 104 90 C 126 120, 130 55, 148 50"
            fill="none" stroke="#4DD9FF" stroke-width="2.5"
            filter="url(#curveGlowWideMin)" opacity="0.4"/>

      <!-- Main curve with glow -->
      <path d="M 60 135 C 78 135, 82 60, 104 90 C 126 120, 130 55, 148 50"
            fill="none" stroke="#4DD9FF" stroke-width="2.2" stroke-linecap="round"
            filter="url(#iconCurveGlow)"/>

      <!-- Control points -->
      <circle cx="60" cy="135" r="3.5" fill="white" filter="url(#iconPointHalo)"/>
      <circle cx="60" cy="135" r="1.5" fill="white"/>

      <circle cx="104" cy="90" r="4" fill="white" filter="url(#iconPointHalo)"/>
      <circle cx="104" cy="90" r="1.8" fill="white"/>

      <circle cx="148" cy="50" r="3.5" fill="white" filter="url(#iconPointHalo)"/>
      <circle cx="148" cy="50" r="1.5" fill="white"/>
    </g>
  </g>

  <!-- ============================================ -->
  <!-- CENTER-LEFT: TEXT                            -->
  <!-- ============================================ -->
  <g>
    <!-- Glow layer behind "td" -->
    <text x="200" y="105"
          font-family="'Segoe UI', 'Inter', 'Helvetica Neue', sans-serif"
          font-size="64" letter-spacing="1.5" fill="#4DD9FF" font-weight="400"
          filter="url(#textGlowMin)">td</text>

    <!-- Main wordmark -->
    <text x="200" y="105"
          font-family="'Segoe UI', 'Inter', 'Helvetica Neue', sans-serif"
          font-size="64" letter-spacing="1.5">
      <tspan fill="#4DD9FF" font-weight="400">td</tspan>
      <tspan fill="#555566" font-weight="300" dx="1">-</tspan>
      <tspan fill="#FFFFFF" font-weight="700" dx="1">CurveEditor</tspan>
    </text>

    <!-- Subtitle -->
    <text x="204" y="138"
          font-family="'Segoe UI', 'Inter', 'Helvetica Neue', sans-serif"
          font-size="22" fill="#4DD9FF" fill-opacity="0.55" font-weight="400"
          letter-spacing="1.5">GLSL Curve Editor + LFO</text>
  </g>

  <!-- ============================================ -->
  <!-- RIGHT SIDE: ELEGANT CURVE WITH GLOW          -->
  <!-- ============================================ -->
  <g>
    <!-- Under-curve fill area -->
    <path d="M 800 162 C 850 162, 870 68, 940 88
             C 1010 108, 1020 48, 1080 38
             C 1140 28, 1160 82, 1200 62 L 1200 185 L 800 185 Z"
          fill="url(#curveFillMin)"/>

    <!-- Wide ambient glow -->
    <path d="M 800 162 C 850 162, 870 68, 940 88
             C 1010 108, 1020 48, 1080 38
             C 1140 28, 1160 82, 1200 62"
          fill="none" stroke="#4DD9FF" stroke-width="3"
          filter="url(#curveGlowWideMin)" opacity="0.5"/>

    <!-- Main curve with glow -->
    <path d="M 800 162 C 850 162, 870 68, 940 88
             C 1010 108, 1020 48, 1080 38
             C 1140 28, 1160 82, 1200 62"
          fill="none" stroke="url(#curveGradMin)" stroke-width="2.4" stroke-linecap="round"
          filter="url(#curveGlowMin)"/>

    <!-- Bright core highlight -->
    <path d="M 800 162 C 850 162, 870 68, 940 88
             C 1010 108, 1020 48, 1080 38
             C 1140 28, 1160 82, 1200 62"
          fill="none" stroke="white" stroke-width="0.6" stroke-linecap="round" opacity="0.15"/>

    <!-- Control point 1 -->
    <circle cx="940" cy="88" r="6" fill="none" stroke="#4DD9FF" stroke-width="1.2" opacity="0.4"/>
    <circle cx="940" cy="88" r="4" fill="white" opacity="0.95" filter="url(#pointHaloMin)"/>
    <circle cx="940" cy="88" r="1.8" fill="white"/>

    <!-- Control point 2 -->
    <circle cx="1080" cy="38" r="6" fill="none" stroke="#4DD9FF" stroke-width="1.2" opacity="0.4"/>
    <circle cx="1080" cy="38" r="4" fill="white" opacity="0.95" filter="url(#pointHaloMin)"/>
    <circle cx="1080" cy="38" r="1.8" fill="white"/>

    <!-- Subtle handle lines -->
    <line x1="940" y1="88" x2="900" y2="120" stroke="#4DD9FF" stroke-width="0.5"
          stroke-dasharray="3,3" opacity="0.2"/>
    <line x1="940" y1="88" x2="980" y2="70" stroke="#4DD9FF" stroke-width="0.5"
          stroke-dasharray="3,3" opacity="0.2"/>
    <line x1="1080" y1="38" x2="1050" y2="50" stroke="#4DD9FF" stroke-width="0.5"
          stroke-dasharray="3,3" opacity="0.2"/>
    <line x1="1080" y1="38" x2="1120" y2="42" stroke="#4DD9FF" stroke-width="0.5"
          stroke-dasharray="3,3" opacity="0.2"/>

    <!-- Handle dots -->
    <circle cx="900" cy="120" r="1.5" fill="#4DD9FF" opacity="0.2"/>
    <circle cx="980" cy="70" r="1.5" fill="#4DD9FF" opacity="0.2"/>
    <circle cx="1050" cy="50" r="1.5" fill="#4DD9FF" opacity="0.2"/>
    <circle cx="1120" cy="42" r="1.5" fill="#4DD9FF" opacity="0.2"/>
  </g>

</svg>