<svg xmlns="http://www.w3.org/2000/svg" viewBox="0 0 128 128" width="128" height="128">
  <defs>
    <!-- Dark background gradient -->
    <radialGradient id="bg" cx="50%" cy="40%" r="60%">
      <stop offset="0%" stop-color="#0E0E12"/>
      <stop offset="100%" stop-color="#0A0A0F"/>
    </radialGradient>

    <!-- Cyan glow for the curve -->
    <filter id="curveGlow" x="-40%" y="-40%" width="180%" height="180%">
      <feGaussianBlur in="SourceGraphic" stdDeviation="4" result="blur1"/>
      <feGaussianBlur in="SourceGraphic" stdDeviation="1.5" result="blur2"/>
      <feMerge>
        <feMergeNode in="blur1"/>
        <feMergeNode in="blur2"/>
        <feMergeNode in="SourceGraphic"/>
      </feMerge>
    </filter>

    <!-- Stronger outer glow layer -->
    <filter id="outerGlow" x="-50%" y="-50%" width="200%" height="200%">
      <feGaussianBlur in="SourceGraphic" stdDeviation="8" result="bigBlur"/>
      <feColorMatrix in="bigBlur" type="matrix"
        values="1 0 0 0 0
                0 1 0 0 0
                0 0 1 0 0
                0 0 0 0.5 0" result="fadedBlur"/>
      <feMerge>
        <feMergeNode in="fadedBlur"/>
      </feMerge>
    </filter>

    <!-- Point glow -->
    <filter id="pointGlow" x="-100%" y="-100%" width="300%" height="300%">
      <feGaussianBlur in="SourceGraphic" stdDeviation="2.5" result="pGlow"/>
      <feMerge>
        <feMergeNode in="pGlow"/>
        <feMergeNode in="SourceGraphic"/>
      </feMerge>
    </filter>
  </defs>

  <!-- Circle container -->
  <circle cx="64" cy="64" r="62" fill="url(#bg)"/>
  <circle cx="64" cy="64" r="61.5" fill="none" stroke="#4DD9FF" stroke-width="1" opacity="0.2"/>

  <!-- Outer glow layer (drawn first, behind everything) -->
  <path d="M 24,90 C 44,88 52,30 72,36 C 92,42 100,56 104,40"
        fill="none" stroke="#4DD9FF" stroke-width="6" stroke-linecap="round"
        filter="url(#outerGlow)"/>

  <!-- Main bezier curve with glow -->
  <path d="M 24,90 C 44,88 52,30 72,36 C 92,42 100,56 104,40"
        fill="none" stroke="#4DD9FF" stroke-width="6" stroke-linecap="round"
        filter="url(#curveGlow)"/>

  <!-- Control point 1 (start region) -->
  <circle cx="38" cy="78" r="4.5" fill="#FFFFFF" filter="url(#pointGlow)"/>
  <circle cx="38" cy="78" r="3" fill="#FFFFFF"/>

  <!-- Control point 2 (end region) -->
  <circle cx="90" cy="42" r="4.5" fill="#FFFFFF" filter="url(#pointGlow)"/>
  <circle cx="90" cy="42" r="3" fill="#FFFFFF"/>
</svg>