<svg xmlns="http://www.w3.org/2000/svg" viewBox="0 0 512 512" width="512" height="512">
  <defs>
    <!-- Triple-layer glow filters -->
    <filter id="glow-wide" x="-50%" y="-50%" width="200%" height="200%">
      <feGaussianBlur in="SourceGraphic" stdDeviation="16" result="blur16"/>
      <feColorMatrix in="blur16" type="matrix"
        values="0 0 0 0 0.302
                0 0 0 0 0.851
                0 0 0 0 1
                0 0 0 0.15 0" result="colored"/>
      <feMerge>
        <feMergeNode in="colored"/>
      </feMerge>
    </filter>

    <filter id="glow-medium" x="-30%" y="-30%" width="160%" height="160%">
      <feGaussianBlur in="SourceGraphic" stdDeviation="6" result="blur6"/>
      <feColorMatrix in="blur6" type="matrix"
        values="0 0 0 0 0.302
                0 0 0 0 0.851
                0 0 0 0 1
                0 0 0 0.45 0" result="colored"/>
      <feMerge>
        <feMergeNode in="colored"/>
      </feMerge>
    </filter>

    <!-- Point glow for control points -->
    <filter id="point-glow" x="-200%" y="-200%" width="500%" height="500%">
      <feGaussianBlur in="SourceGraphic" stdDeviation="4" result="blur"/>
      <feMerge>
        <feMergeNode in="blur"/>
        <feMergeNode in="SourceGraphic"/>
      </feMerge>
    </filter>

    <!-- Gold point glow -->
    <filter id="gold-glow" x="-200%" y="-200%" width="500%" height="500%">
      <feGaussianBlur in="SourceGraphic" stdDeviation="5" result="blur"/>
      <feColorMatrix in="blur" type="matrix"
        values="0 0 0 0 1
                0 0 0 0 0.8
                0 0 0 0 0.2
                0 0 0 0.4 0" result="colored"/>
      <feMerge>
        <feMergeNode in="colored"/>
        <feMergeNode in="SourceGraphic"/>
      </feMerge>
    </filter>

    <!-- Scanline glow -->
    <filter id="scanline-glow" x="-50%" y="-50%" width="200%" height="200%">
      <feGaussianBlur in="SourceGraphic" stdDeviation="3" result="blur"/>
      <feMerge>
        <feMergeNode in="blur"/>
        <feMergeNode in="SourceGraphic"/>
      </feMerge>
    </filter>
  </defs>

  <!--
    The main curve: a flowing signature-like bezier that sweeps from
    bottom-left, rises into a tall vertical stroke (evoking "t"),
    crosses over, then loops into a rounded bowl (evoking "d").
  -->

  <!-- Layer 1: Wide ambient glow -->
  <path
    d="M 72,400
       C 72,400  100,410  130,360
       C 160,310  150,140  170,100
       C 190,60   200,80   210,130
       C 225,200  195,290  240,310
       C 285,330  300,180  330,140
       C 360,100  370,110  380,160
       C 400,240  390,340  370,370
       C 350,400  310,390  300,350
       C 285,290  320,200  350,190
       C 380,180  410,240  430,280"
    fill="none"
    stroke="#4DD9FF"
    stroke-width="12"
    stroke-linecap="round"
    stroke-linejoin="round"
    filter="url(#glow-wide)"
  />

  <!-- Layer 2: Medium glow -->
  <path
    d="M 72,400
       C 72,400  100,410  130,360
       C 160,310  150,140  170,100
       C 190,60   200,80   210,130
       C 225,200  195,290  240,310
       C 285,330  300,180  330,140
       C 360,100  370,110  380,160
       C 400,240  390,340  370,370
       C 350,400  310,390  300,350
       C 285,290  320,200  350,190
       C 380,180  410,240  430,280"
    fill="none"
    stroke="#4DD9FF"
    stroke-width="9"
    stroke-linecap="round"
    stroke-linejoin="round"
    filter="url(#glow-medium)"
  />

  <!-- Layer 3: Crisp main stroke -->
  <path
    d="M 72,400
       C 72,400  100,410  130,360
       C 160,310  150,140  170,100
       C 190,60   200,80   210,130
       C 225,200  195,290  240,310
       C 285,330  300,180  330,140
       C 360,100  370,110  380,160
       C 400,240  390,340  370,370
       C 350,400  310,390  300,350
       C 285,290  320,200  350,190
       C 380,180  410,240  430,280"
    fill="none"
    stroke="#4DD9FF"
    stroke-width="8"
    stroke-linecap="round"
    stroke-linejoin="round"
  />

  <!-- Vertical scanline — faint green, crossing the curve -->
  <line
    x1="280" y1="60"
    x2="280" y2="440"
    stroke="#33FF80"
    stroke-width="1.5"
    stroke-opacity="0.25"
    stroke-dasharray="6,4"
    filter="url(#scanline-glow)"
  />

  <!-- Tangent handle lines (dashed, subtle) -->
  <!-- Tangent from control point 1 (top of the "t" stroke) -->
  <line
    x1="130" y1="210"
    x2="170" y2="100"
    stroke="#4DD9FF"
    stroke-width="1.5"
    stroke-opacity="0.25"
    stroke-dasharray="4,4"
    stroke-linecap="round"
  />
  <line
    x1="210" y1="320"
    x2="170" y2="100"
    stroke="#4DD9FF"
    stroke-width="1.5"
    stroke-opacity="0.25"
    stroke-dasharray="4,4"
    stroke-linecap="round"
  />

  <!-- Tangent from control point 3 (the "d" bowl area) -->
  <line
    x1="330" y1="250"
    x2="370" y2="370"
    stroke="#4DD9FF"
    stroke-width="1.5"
    stroke-opacity="0.25"
    stroke-dasharray="4,4"
    stroke-linecap="round"
  />
  <line
    x1="410" y1="290"
    x2="370" y2="370"
    stroke="#4DD9FF"
    stroke-width="1.5"
    stroke-opacity="0.25"
    stroke-dasharray="4,4"
    stroke-linecap="round"
  />

  <!-- Control Point 1: Top of "t" peak — cyan -->
  <g filter="url(#point-glow)">
    <circle cx="170" cy="100" r="10" fill="none" stroke="#4DD9FF" stroke-width="2" stroke-opacity="0.5"/>
    <circle cx="170" cy="100" r="6" fill="white"/>
  </g>

  <!-- Control Point 2: Mid-curve inflection — GOLD (active) -->
  <g filter="url(#gold-glow)">
    <circle cx="330" cy="140" r="10" fill="none" stroke="#FFCC33" stroke-width="2.5" stroke-opacity="0.7"/>
    <circle cx="330" cy="140" r="6" fill="#FFCC33"/>
    <!-- Inner bright core -->
    <circle cx="330" cy="140" r="3" fill="white" opacity="0.8"/>
  </g>

  <!-- Control Point 3: Bottom of "d" bowl — cyan -->
  <g filter="url(#point-glow)">
    <circle cx="370" cy="370" r="10" fill="none" stroke="#4DD9FF" stroke-width="2" stroke-opacity="0.5"/>
    <circle cx="370" cy="370" r="6" fill="white"/>
  </g>
</svg>