<svg xmlns="http://www.w3.org/2000/svg" viewBox="0 0 512 512" width="512" height="512">
  <defs>
    <!-- Background gradient -->
    <linearGradient id="bgGrad" x1="0" y1="0" x2="0" y2="1">
      <stop offset="0%" stop-color="#0E0E12"/>
      <stop offset="100%" stop-color="#0A0A0F"/>
    </linearGradient>

    <!-- Border gradient with subtle angle -->
    <linearGradient id="borderGrad" x1="0" y1="0" x2="1" y2="1">
      <stop offset="0%" stop-color="#4DD9FF" stop-opacity="0.2"/>
      <stop offset="50%" stop-color="#4DD9FF" stop-opacity="0.08"/>
      <stop offset="100%" stop-color="#4DD9FF" stop-opacity="0.18"/>
    </linearGradient>

    <!-- Curve stroke gradient for depth -->
    <linearGradient id="curveGrad" x1="0" y1="0" x2="1" y2="0">
      <stop offset="0%" stop-color="#3AB8DD"/>
      <stop offset="30%" stop-color="#4DD9FF"/>
      <stop offset="70%" stop-color="#6AE4FF"/>
      <stop offset="100%" stop-color="#4DD9FF"/>
    </linearGradient>

    <!-- Area fill under curve -->
    <linearGradient id="areaFill" x1="0" y1="0" x2="0" y2="1">
      <stop offset="0%" stop-color="#4DD9FF" stop-opacity="0.08"/>
      <stop offset="60%" stop-color="#4DD9FF" stop-opacity="0.03"/>
      <stop offset="100%" stop-color="#4DD9FF" stop-opacity="0"/>
    </linearGradient>

    <!-- Control point radial glow -->
    <radialGradient id="pointGlow" cx="50%" cy="50%" r="50%">
      <stop offset="0%" stop-color="#4DD9FF" stop-opacity="0.5"/>
      <stop offset="50%" stop-color="#4DD9FF" stop-opacity="0.15"/>
      <stop offset="100%" stop-color="#4DD9FF" stop-opacity="0"/>
    </radialGradient>

    <!-- Scanline gradient -->
    <linearGradient id="scanGrad" x1="0" y1="0" x2="0" y2="1">
      <stop offset="0%" stop-color="#33FF80" stop-opacity="0"/>
      <stop offset="20%" stop-color="#33FF80" stop-opacity="0.25"/>
      <stop offset="50%" stop-color="#33FF80" stop-opacity="0.35"/>
      <stop offset="80%" stop-color="#33FF80" stop-opacity="0.25"/>
      <stop offset="100%" stop-color="#33FF80" stop-opacity="0"/>
    </linearGradient>

    <!-- Scanline dot glow -->
    <radialGradient id="scanDotGlow" cx="50%" cy="50%" r="50%">
      <stop offset="0%" stop-color="#33FF80" stop-opacity="0.8"/>
      <stop offset="40%" stop-color="#33FF80" stop-opacity="0.3"/>
      <stop offset="100%" stop-color="#33FF80" stop-opacity="0"/>
    </radialGradient>

    <!-- Inner shadow for container depth -->
    <radialGradient id="innerVignette" cx="50%" cy="50%" r="60%">
      <stop offset="0%" stop-color="#0E0E12" stop-opacity="0"/>
      <stop offset="100%" stop-color="#000000" stop-opacity="0.4"/>
    </radialGradient>

    <!-- Strong outer glow for the curve -->
    <filter id="curveGlow" x="-30%" y="-30%" width="160%" height="160%">
      <feGaussianBlur in="SourceGraphic" stdDeviation="8" result="blur1"/>
      <feGaussianBlur in="SourceGraphic" stdDeviation="3" result="blur2"/>
      <feMerge>
        <feMergeNode in="blur1"/>
        <feMergeNode in="blur2"/>
      </feMerge>
    </filter>

    <!-- Wide ambient glow for curve -->
    <filter id="curveGlowWide" x="-50%" y="-50%" width="200%" height="200%">
      <feGaussianBlur in="SourceGraphic" stdDeviation="18" result="blur"/>
      <feColorMatrix in="blur" type="matrix"
        values="1 0 0 0 0
                0 1 0 0 0
                0 0 1 0 0
                0 0 0 0.4 0"/>
    </filter>

    <!-- Control point outer glow -->
    <filter id="pointOuterGlow" x="-100%" y="-100%" width="300%" height="300%">
      <feGaussianBlur in="SourceGraphic" stdDeviation="6" result="blur"/>
      <feMerge>
        <feMergeNode in="blur"/>
        <feMergeNode in="SourceGraphic"/>
      </feMerge>
    </filter>

    <!-- Subtle inner shadow for the container -->
    <filter id="innerShadow" x="-5%" y="-5%" width="110%" height="110%">
      <feGaussianBlur in="SourceAlpha" stdDeviation="12" result="blur"/>
      <feOffset dx="0" dy="4" result="offset"/>
      <feComposite in2="SourceAlpha" operator="arithmetic" k2="-1" k3="1" result="shadowDiff"/>
      <feFlood flood-color="#000000" flood-opacity="0.5" result="color"/>
      <feComposite in="color" in2="shadowDiff" operator="in"/>
    </filter>

    <!-- Scanline glow -->
    <filter id="scanGlow" x="-200%" y="-10%" width="500%" height="120%">
      <feGaussianBlur in="SourceGraphic" stdDeviation="4"/>
    </filter>

    <!-- Grid pattern -->
    <pattern id="gridPattern" width="72" height="72" patternUnits="userSpaceOnUse" x="58" y="58">
      <line x1="0" y1="0" x2="0" y2="72" stroke="#1A1A22" stroke-width="0.8"/>
      <line x1="0" y1="0" x2="72" y2="0" stroke="#1A1A22" stroke-width="0.8"/>
    </pattern>

    <!-- Clip mask for content area -->
    <clipPath id="containerClip">
      <rect x="16" y="16" width="480" height="480" rx="56"/>
    </clipPath>

    <!-- Subtle top highlight for the container -->
    <linearGradient id="topHighlight" x1="0" y1="0" x2="0" y2="1">
      <stop offset="0%" stop-color="#4DD9FF" stop-opacity="0.06"/>
      <stop offset="30%" stop-color="#4DD9FF" stop-opacity="0"/>
    </linearGradient>

    <!-- Drop shadow for the whole container -->
    <filter id="containerShadow" x="-10%" y="-5%" width="120%" height="125%">
      <feDropShadow dx="0" dy="8" stdDeviation="16" flood-color="#000000" flood-opacity="0.5"/>
    </filter>

    <!-- Handle line dash -->
    <filter id="handleGlow" x="-50%" y="-50%" width="200%" height="200%">
      <feGaussianBlur in="SourceGraphic" stdDeviation="2"/>
    </filter>
  </defs>

  <!-- ============================================ -->
  <!-- CONTAINER                                    -->
  <!-- ============================================ -->

  <!-- Outer shadow -->
  <rect x="16" y="16" width="480" height="480" rx="64" fill="none" filter="url(#containerShadow)"/>

  <!-- Main container background -->
  <rect x="16" y="16" width="480" height="480" rx="64" fill="url(#bgGrad)"/>

  <!-- Border -->
  <rect x="16" y="16" width="480" height="480" rx="64"
        fill="none" stroke="url(#borderGrad)" stroke-width="1.5"/>

  <!-- Clip everything inside -->
  <g clip-path="url(#containerClip)">

    <!-- Top highlight -->
    <rect x="16" y="16" width="480" height="480" fill="url(#topHighlight)"/>

    <!-- ============================================ -->
    <!-- GRID                                         -->
    <!-- ============================================ -->

    <!-- Subtle grid -->
    <rect x="16" y="16" width="480" height="480" fill="url(#gridPattern)" opacity="0.6"/>

    <!-- Axis lines (slightly brighter) -->
    <!-- Horizontal center-ish lines -->
    <line x1="58" y1="202" x2="454" y2="202" stroke="#1A1A22" stroke-width="0.5" opacity="0.8"/>
    <line x1="58" y1="346" x2="454" y2="346" stroke="#1A1A22" stroke-width="0.5" opacity="0.8"/>

    <!-- ============================================ -->
    <!-- AREA FILL UNDER CURVE                        -->
    <!-- ============================================ -->

    <!-- Area path (curve down to baseline) -->
    <path d="M 72 388 C 130 388, 150 372, 186 320 C 222 268, 210 190, 256 170
             C 302 150, 310 240, 340 280 C 370 320, 390 148, 440 120 L 440 420 L 72 420 Z"
          fill="url(#areaFill)"/>

    <!-- ============================================ -->
    <!-- BEZIER CURVE                                 -->
    <!-- ============================================ -->

    <!-- Wide ambient glow layer -->
    <path d="M 72 388 C 130 388, 150 372, 186 320 C 222 268, 210 190, 256 170
             C 302 150, 310 240, 340 280 C 370 320, 390 148, 440 120"
          fill="none" stroke="#4DD9FF" stroke-width="4" stroke-linecap="round"
          filter="url(#curveGlowWide)" opacity="0.6"/>

    <!-- Main glow layer -->
    <path d="M 72 388 C 130 388, 150 372, 186 320 C 222 268, 210 190, 256 170
             C 302 150, 310 240, 340 280 C 370 320, 390 148, 440 120"
          fill="none" stroke="#4DD9FF" stroke-width="3.5" stroke-linecap="round"
          filter="url(#curveGlow)"/>

    <!-- Crisp curve on top -->
    <path d="M 72 388 C 130 388, 150 372, 186 320 C 222 268, 210 190, 256 170
             C 302 150, 310 240, 340 280 C 370 320, 390 148, 440 120"
          fill="none" stroke="url(#curveGrad)" stroke-width="2.8" stroke-linecap="round"/>

    <!-- Bright core line -->
    <path d="M 72 388 C 130 388, 150 372, 186 320 C 222 268, 210 190, 256 170
             C 302 150, 310 240, 340 280 C 370 320, 390 148, 440 120"
          fill="none" stroke="#FFFFFF" stroke-width="0.8" stroke-linecap="round" opacity="0.25"/>

    <!-- ============================================ -->
    <!-- SCANLINE (LFO playhead)                      -->
    <!-- ============================================ -->

    <!-- Scanline wide glow -->
    <line x1="330" y1="80" x2="330" y2="440" stroke="#33FF80" stroke-width="12"
          opacity="0.06" filter="url(#scanGlow)"/>

    <!-- Scanline medium glow -->
    <line x1="330" y1="90" x2="330" y2="430" stroke="url(#scanGrad)" stroke-width="1.5" opacity="0.5"/>

    <!-- Scanline crisp line -->
    <line x1="330" y1="100" x2="330" y2="420" stroke="#33FF80" stroke-width="0.8" opacity="0.3"/>

    <!-- Scanline intersection dot glow -->
    <circle cx="330" cy="268" r="16" fill="url(#scanDotGlow)" opacity="0.5"/>

    <!-- Scanline intersection dot -->
    <circle cx="330" cy="268" r="3.5" fill="#33FF80" opacity="0.9"/>
    <circle cx="330" cy="268" r="1.5" fill="#FFFFFF" opacity="0.7"/>

    <!-- ============================================ -->
    <!-- CONTROL POINT HANDLE LINES                   -->
    <!-- ============================================ -->

    <!-- Handle lines (tangent indicators) - subtle dashed -->
    <!-- Point 1 handles -->
    <line x1="186" y1="320" x2="150" y2="372" stroke="#4DD9FF" stroke-width="0.6"
          stroke-dasharray="3,4" opacity="0.3"/>
    <line x1="186" y1="320" x2="222" y2="268" stroke="#4DD9FF" stroke-width="0.6"
          stroke-dasharray="3,4" opacity="0.3"/>

    <!-- Point 2 handles -->
    <line x1="256" y1="170" x2="210" y2="190" stroke="#4DD9FF" stroke-width="0.6"
          stroke-dasharray="3,4" opacity="0.3"/>
    <line x1="256" y1="170" x2="302" y2="150" stroke="#4DD9FF" stroke-width="0.6"
          stroke-dasharray="3,4" opacity="0.3"/>

    <!-- Point 3 handles -->
    <line x1="340" y1="280" x2="310" y2="240" stroke="#4DD9FF" stroke-width="0.6"
          stroke-dasharray="3,4" opacity="0.3"/>
    <line x1="340" y1="280" x2="370" y2="320" stroke="#4DD9FF" stroke-width="0.6"
          stroke-dasharray="3,4" opacity="0.3"/>

    <!-- Handle dots (small, at tangent ends) -->
    <circle cx="150" cy="372" r="2" fill="#4DD9FF" opacity="0.25"/>
    <circle cx="222" cy="268" r="2" fill="#4DD9FF" opacity="0.25"/>
    <circle cx="210" cy="190" r="2" fill="#4DD9FF" opacity="0.25"/>
    <circle cx="302" cy="150" r="2" fill="#4DD9FF" opacity="0.25"/>
    <circle cx="310" cy="240" r="2" fill="#4DD9FF" opacity="0.25"/>
    <circle cx="370" cy="320" r="2" fill="#4DD9FF" opacity="0.25"/>

    <!-- ============================================ -->
    <!-- CONTROL POINTS                               -->
    <!-- ============================================ -->

    <!-- Point 1: Start of visible S (ease-out region) -->
    <circle cx="186" cy="320" r="20" fill="url(#pointGlow)" opacity="0.8"/>
    <circle cx="186" cy="320" r="7" fill="none" stroke="#4DD9FF" stroke-width="1.5" opacity="0.5"/>
    <circle cx="186" cy="320" r="4" fill="#FFFFFF" opacity="0.95"/>
    <circle cx="186" cy="320" r="2" fill="#FFFFFF"/>

    <!-- Point 2: Peak of S-curve -->
    <circle cx="256" cy="170" r="22" fill="url(#pointGlow)" opacity="0.9"/>
    <circle cx="256" cy="170" r="8" fill="none" stroke="#4DD9FF" stroke-width="1.8" opacity="0.55"/>
    <circle cx="256" cy="170" r="4.5" fill="#FFFFFF" opacity="0.95"/>
    <circle cx="256" cy="170" r="2.2" fill="#FFFFFF"/>

    <!-- Point 3: Mid dip -->
    <circle cx="340" cy="280" r="20" fill="url(#pointGlow)" opacity="0.8"/>
    <circle cx="340" cy="280" r="7" fill="none" stroke="#4DD9FF" stroke-width="1.5" opacity="0.5"/>
    <circle cx="340" cy="280" r="4" fill="#FFFFFF" opacity="0.95"/>
    <circle cx="340" cy="280" r="2" fill="#FFFFFF"/>

    <!-- Point 4: End peak -->
    <circle cx="440" cy="120" r="20" fill="url(#pointGlow)" opacity="0.8"/>
    <circle cx="440" cy="120" r="7" fill="none" stroke="#4DD9FF" stroke-width="1.5" opacity="0.5"/>
    <circle cx="440" cy="120" r="4" fill="#FFFFFF" opacity="0.95"/>
    <circle cx="440" cy="120" r="2" fill="#FFFFFF"/>

    <!-- ============================================ -->
    <!-- VIGNETTE OVERLAY                             -->
    <!-- ============================================ -->

    <rect x="16" y="16" width="480" height="480" fill="url(#innerVignette)"/>

  </g>
</svg>