<svg xmlns="http://www.w3.org/2000/svg" viewBox="0 0 512 512" width="512" height="512">
  <defs>
    <!-- ============================================ -->
    <!-- GRADIENTS                                    -->
    <!-- ============================================ -->

    <!-- Hex fill gradient -->
    <linearGradient id="hexBgGrad" x1="0" y1="0" x2="0" y2="1">
      <stop offset="0%" stop-color="#0E0E12"/>
      <stop offset="100%" stop-color="#0A0A0F"/>
    </linearGradient>

    <!-- Hex border: lit from above -->
    <linearGradient id="hexBorderGrad" x1="0.5" y1="0" x2="0.5" y2="1">
      <stop offset="0%" stop-color="#4DD9FF" stop-opacity="0.40"/>
      <stop offset="35%" stop-color="#4DD9FF" stop-opacity="0.28"/>
      <stop offset="65%" stop-color="#4DD9FF" stop-opacity="0.18"/>
      <stop offset="100%" stop-color="#4DD9FF" stop-opacity="0.15"/>
    </linearGradient>

    <!-- Curve stroke gradient for depth -->
    <linearGradient id="curveGrad" x1="0" y1="0" x2="1" y2="0">
      <stop offset="0%" stop-color="#3AB8DD"/>
      <stop offset="25%" stop-color="#4DD9FF"/>
      <stop offset="60%" stop-color="#6AE4FF"/>
      <stop offset="100%" stop-color="#4DD9FF"/>
    </linearGradient>

    <!-- Area fill under curve -->
    <linearGradient id="areaFill" x1="0" y1="0" x2="0" y2="1">
      <stop offset="0%" stop-color="#4DD9FF" stop-opacity="0.08"/>
      <stop offset="50%" stop-color="#4DD9FF" stop-opacity="0.03"/>
      <stop offset="100%" stop-color="#4DD9FF" stop-opacity="0"/>
    </linearGradient>

    <!-- Control point radial glow - cyan -->
    <radialGradient id="pointGlowCyan" cx="50%" cy="50%" r="50%">
      <stop offset="0%" stop-color="#4DD9FF" stop-opacity="0.55"/>
      <stop offset="50%" stop-color="#4DD9FF" stop-opacity="0.15"/>
      <stop offset="100%" stop-color="#4DD9FF" stop-opacity="0"/>
    </radialGradient>

    <!-- Control point radial glow - gold (active point) -->
    <radialGradient id="pointGlowGold" cx="50%" cy="50%" r="50%">
      <stop offset="0%" stop-color="#FFD94D" stop-opacity="0.60"/>
      <stop offset="50%" stop-color="#FFD94D" stop-opacity="0.18"/>
      <stop offset="100%" stop-color="#FFD94D" stop-opacity="0"/>
    </radialGradient>

    <!-- Inner vignette for depth -->
    <radialGradient id="innerVignette" cx="50%" cy="45%" r="55%">
      <stop offset="0%" stop-color="#0E0E12" stop-opacity="0"/>
      <stop offset="70%" stop-color="#000000" stop-opacity="0.15"/>
      <stop offset="100%" stop-color="#000000" stop-opacity="0.50"/>
    </radialGradient>

    <!-- Top-face highlight inside hex -->
    <linearGradient id="topHighlight" x1="0" y1="0" x2="0" y2="1">
      <stop offset="0%" stop-color="#4DD9FF" stop-opacity="0.05"/>
      <stop offset="25%" stop-color="#4DD9FF" stop-opacity="0"/>
    </linearGradient>

    <!-- ============================================ -->
    <!-- FILTERS                                      -->
    <!-- ============================================ -->

    <!-- Wide ambient glow for curve -->
    <filter id="curveGlowWide" x="-50%" y="-50%" width="200%" height="200%">
      <feGaussianBlur in="SourceGraphic" stdDeviation="16" result="blur"/>
      <feColorMatrix in="blur" type="matrix"
        values="1 0 0 0 0
                0 1 0 0 0
                0 0 1 0 0
                0 0 0 0.45 0"/>
    </filter>

    <!-- Medium curve glow -->
    <filter id="curveGlow" x="-30%" y="-30%" width="160%" height="160%">
      <feGaussianBlur in="SourceGraphic" stdDeviation="7" result="blur1"/>
      <feGaussianBlur in="SourceGraphic" stdDeviation="2.5" result="blur2"/>
      <feMerge>
        <feMergeNode in="blur1"/>
        <feMergeNode in="blur2"/>
      </feMerge>
    </filter>

    <!-- Control point outer glow -->
    <filter id="pointOuterGlow" x="-100%" y="-100%" width="300%" height="300%">
      <feGaussianBlur in="SourceGraphic" stdDeviation="5" result="blur"/>
      <feMerge>
        <feMergeNode in="blur"/>
        <feMergeNode in="SourceGraphic"/>
      </feMerge>
    </filter>

    <!-- Gold point glow -->
    <filter id="goldGlow" x="-100%" y="-100%" width="300%" height="300%">
      <feGaussianBlur in="SourceGraphic" stdDeviation="6" result="blur"/>
      <feMerge>
        <feMergeNode in="blur"/>
        <feMergeNode in="SourceGraphic"/>
      </feMerge>
    </filter>

    <!-- Outer drop shadow for hex -->
    <filter id="hexShadow" x="-15%" y="-10%" width="130%" height="130%">
      <feDropShadow dx="0" dy="6" stdDeviation="14" flood-color="#000000" flood-opacity="0.55"/>
    </filter>

    <!-- Text glow -->
    <filter id="textGlow" x="-20%" y="-20%" width="140%" height="140%">
      <feGaussianBlur in="SourceGraphic" stdDeviation="3" result="blur"/>
      <feMerge>
        <feMergeNode in="blur"/>
        <feMergeNode in="SourceGraphic"/>
      </feMerge>
    </filter>

    <!-- ============================================ -->
    <!-- HEXAGONAL GRID PATTERN                       -->
    <!-- ============================================ -->

    <!-- 60-degree angle grid lines: three sets at 0, 60, and 120 degrees -->
    <pattern id="hexGrid" width="52" height="90" patternUnits="userSpaceOnUse"
             patternTransform="translate(256,220)">
      <!-- Horizontal lines (0 deg) -->
      <line x1="0" y1="0" x2="52" y2="0" stroke="#1A1A22" stroke-width="0.6"/>
      <line x1="0" y1="45" x2="52" y2="45" stroke="#1A1A22" stroke-width="0.6"/>
      <!-- 60 degree lines (rise/run = tan60 = 1.732) -->
      <line x1="0" y1="90" x2="52" y2="0" stroke="#1A1A22" stroke-width="0.6"/>
      <line x1="0" y1="45" x2="26" y2="0" stroke="#1A1A22" stroke-width="0.6"/>
      <line x1="26" y1="90" x2="52" y2="45" stroke="#1A1A22" stroke-width="0.6"/>
      <!-- 120 degree lines (mirror) -->
      <line x1="0" y1="0" x2="52" y2="90" stroke="#1A1A22" stroke-width="0.6"/>
      <line x1="26" y1="0" x2="52" y2="45" stroke="#1A1A22" stroke-width="0.6"/>
      <line x1="0" y1="45" x2="26" y2="90" stroke="#1A1A22" stroke-width="0.6"/>
    </pattern>

    <!-- ============================================ -->
    <!-- HEXAGON GEOMETRY                             -->
    <!-- ============================================ -->

    <!-- Regular flat-top hexagon, ~460px wide, centered at (256, 220)
         Flat-top hex vertices: center + r * (cos(angle), sin(angle))
         for angles 0, 60, 120, 180, 240, 300 degrees
         r = 230 (half of 460)
         cx=256, cy=220 (shifted up to leave room for text below)

         Vertices:
           0 deg: (256+230, 220) = (486, 220)
          60 deg: (256+115, 220-199.2) = (371, 20.8)
         120 deg: (256-115, 220-199.2) = (141, 20.8)
         180 deg: (256-230, 220) = (26, 220)
         240 deg: (256-115, 220+199.2) = (141, 419.2)
         300 deg: (256+115, 220+199.2) = (371, 419.2)
    -->

    <clipPath id="hexClip">
      <polygon points="486,220 371,20.8 141,20.8 26,220 141,419.2 371,419.2"/>
    </clipPath>

    <!-- Slightly smaller hex for inner shadow mask -->
    <clipPath id="hexClipInner">
      <polygon points="482,220 369,24 143,24 30,220 143,416 369,416"/>
    </clipPath>
  </defs>

  <!-- ============================================ -->
  <!-- HEXAGON CONTAINER                            -->
  <!-- ============================================ -->

  <!-- Outer shadow -->
  <polygon points="486,220 371,20.8 141,20.8 26,220 141,419.2 371,419.2"
           fill="none" filter="url(#hexShadow)"/>

  <!-- Main hex background -->
  <polygon points="486,220 371,20.8 141,20.8 26,220 141,419.2 371,419.2"
           fill="url(#hexBgGrad)"/>

  <!-- Hex border stroke - lit from above -->
  <polygon points="486,220 371,20.8 141,20.8 26,220 141,419.2 371,419.2"
           fill="none" stroke="url(#hexBorderGrad)" stroke-width="2" stroke-linejoin="round"/>

  <!-- Clipped content inside hexagon -->
  <g clip-path="url(#hexClip)">

    <!-- Top highlight wash -->
    <rect x="26" y="20" width="460" height="400" fill="url(#topHighlight)"/>

    <!-- ============================================ -->
    <!-- HEXAGONAL GRID                               -->
    <!-- ============================================ -->

    <rect x="26" y="20" width="460" height="400" fill="url(#hexGrid)" opacity="0.55"/>

    <!-- ============================================ -->
    <!-- AREA FILL UNDER CURVE                        -->
    <!-- ============================================ -->

    <!-- Curve flows from lower-left vertex area to upper-right vertex area
         Lower-left vertex: ~(141, 419)
         Upper-right vertex: ~(371, 21)
         Using 4 control points spread across the hex interior -->

    <path d="M 110 395 C 155 395, 170 370, 200 310
             C 230 250, 225 195, 265 165
             C 305 135, 310 230, 340 260
             C 370 290, 400 90, 430 55
             L 430 420 L 110 420 Z"
          fill="url(#areaFill)"/>

    <!-- ============================================ -->
    <!-- BEZIER CURVE - 3-layer glow treatment        -->
    <!-- ============================================ -->

    <!-- Layer 1: Wide ambient glow -->
    <path d="M 110 395 C 155 395, 170 370, 200 310
             C 230 250, 225 195, 265 165
             C 305 135, 310 230, 340 260
             C 370 290, 400 90, 430 55"
          fill="none" stroke="#4DD9FF" stroke-width="5" stroke-linecap="round"
          filter="url(#curveGlowWide)" opacity="0.55"/>

    <!-- Layer 2: Medium glow -->
    <path d="M 110 395 C 155 395, 170 370, 200 310
             C 230 250, 225 195, 265 165
             C 305 135, 310 230, 340 260
             C 370 290, 400 90, 430 55"
          fill="none" stroke="#4DD9FF" stroke-width="3.5" stroke-linecap="round"
          filter="url(#curveGlow)"/>

    <!-- Layer 3: Crisp curve -->
    <path d="M 110 395 C 155 395, 170 370, 200 310
             C 230 250, 225 195, 265 165
             C 305 135, 310 230, 340 260
             C 370 290, 400 90, 430 55"
          fill="none" stroke="url(#curveGrad)" stroke-width="2.8" stroke-linecap="round"/>

    <!-- Bright hot-core line -->
    <path d="M 110 395 C 155 395, 170 370, 200 310
             C 230 250, 225 195, 265 165
             C 305 135, 310 230, 340 260
             C 370 290, 400 90, 430 55"
          fill="none" stroke="#FFFFFF" stroke-width="0.8" stroke-linecap="round" opacity="0.22"/>

    <!-- ============================================ -->
    <!-- TANGENT HANDLE LINES                         -->
    <!-- ============================================ -->

    <!-- Point 1 handles -->
    <line x1="200" y1="310" x2="170" y2="370" stroke="#4DD9FF" stroke-width="0.6"
          stroke-dasharray="3,4" opacity="0.28"/>
    <line x1="200" y1="310" x2="230" y2="250" stroke="#4DD9FF" stroke-width="0.6"
          stroke-dasharray="3,4" opacity="0.28"/>

    <!-- Point 2 (active gold) handles -->
    <line x1="265" y1="165" x2="225" y2="195" stroke="#FFD94D" stroke-width="0.7"
          stroke-dasharray="3,4" opacity="0.35"/>
    <line x1="265" y1="165" x2="305" y2="135" stroke="#FFD94D" stroke-width="0.7"
          stroke-dasharray="3,4" opacity="0.35"/>

    <!-- Point 3 handles -->
    <line x1="340" y1="260" x2="310" y2="230" stroke="#4DD9FF" stroke-width="0.6"
          stroke-dasharray="3,4" opacity="0.28"/>
    <line x1="340" y1="260" x2="370" y2="290" stroke="#4DD9FF" stroke-width="0.6"
          stroke-dasharray="3,4" opacity="0.28"/>

    <!-- Handle endpoint dots -->
    <circle cx="170" cy="370" r="1.8" fill="#4DD9FF" opacity="0.22"/>
    <circle cx="230" cy="250" r="1.8" fill="#4DD9FF" opacity="0.22"/>
    <circle cx="225" cy="195" r="2" fill="#FFD94D" opacity="0.28"/>
    <circle cx="305" cy="135" r="2" fill="#FFD94D" opacity="0.28"/>
    <circle cx="310" cy="230" r="1.8" fill="#4DD9FF" opacity="0.22"/>
    <circle cx="370" cy="290" r="1.8" fill="#4DD9FF" opacity="0.22"/>

    <!-- ============================================ -->
    <!-- CONTROL POINTS                               -->
    <!-- ============================================ -->

    <!-- Point 1: Lower-left region - cyan, white core -->
    <circle cx="200" cy="310" r="18" fill="url(#pointGlowCyan)" opacity="0.85"/>
    <circle cx="200" cy="310" r="6.5" fill="none" stroke="#4DD9FF" stroke-width="1.4" opacity="0.50"/>
    <circle cx="200" cy="310" r="3.8" fill="#FFFFFF" opacity="0.95"/>
    <circle cx="200" cy="310" r="1.8" fill="#FFFFFF"/>

    <!-- Point 2: Active gold point - upper area -->
    <circle cx="265" cy="165" r="22" fill="url(#pointGlowGold)" opacity="0.90"/>
    <circle cx="265" cy="165" r="8" fill="none" stroke="#FFD94D" stroke-width="1.8" opacity="0.60"/>
    <circle cx="265" cy="165" r="4.5" fill="#FFFFFF" opacity="0.97"/>
    <circle cx="265" cy="165" r="2.2" fill="#FFD94D" opacity="0.85"/>

    <!-- Point 3: Mid-right region - cyan, white core -->
    <circle cx="340" cy="260" r="18" fill="url(#pointGlowCyan)" opacity="0.85"/>
    <circle cx="340" cy="260" r="6.5" fill="none" stroke="#4DD9FF" stroke-width="1.4" opacity="0.50"/>
    <circle cx="340" cy="260" r="3.8" fill="#FFFFFF" opacity="0.95"/>
    <circle cx="340" cy="260" r="1.8" fill="#FFFFFF"/>

    <!-- Point 4: Upper-right edge - cyan, white core -->
    <circle cx="430" cy="55" r="18" fill="url(#pointGlowCyan)" opacity="0.80"/>
    <circle cx="430" cy="55" r="6.5" fill="none" stroke="#4DD9FF" stroke-width="1.4" opacity="0.45"/>
    <circle cx="430" cy="55" r="3.8" fill="#FFFFFF" opacity="0.92"/>
    <circle cx="430" cy="55" r="1.8" fill="#FFFFFF"/>

    <!-- ============================================ -->
    <!-- VIGNETTE / INNER SHADOW                      -->
    <!-- ============================================ -->

    <polygon points="486,220 371,20.8 141,20.8 26,220 141,419.2 371,419.2"
             fill="url(#innerVignette)"/>

    <!-- Subtle inner edge darkening along bottom edges -->
    <polygon points="486,220 371,20.8 141,20.8 26,220 141,419.2 371,419.2"
             fill="none" stroke="#000000" stroke-width="6" stroke-linejoin="round"
             opacity="0.12"/>

  </g>

  <!-- Re-draw border on top of clipped content for crisp edge -->
  <polygon points="486,220 371,20.8 141,20.8 26,220 141,419.2 371,419.2"
           fill="none" stroke="url(#hexBorderGrad)" stroke-width="2" stroke-linejoin="round"/>

  <!-- Bright edge highlight on top two edges only -->
  <line x1="141" y1="20.8" x2="371" y2="20.8" stroke="#4DD9FF" stroke-width="1" opacity="0.18"/>
  <line x1="371" y1="20.8" x2="486" y2="220" stroke="#4DD9FF" stroke-width="0.6" opacity="0.10"/>
  <line x1="26" y1="220" x2="141" y2="20.8" stroke="#4DD9FF" stroke-width="0.6" opacity="0.10"/>

  <!-- ============================================ -->
  <!-- TEXT: "td" below hexagon                     -->
  <!-- ============================================ -->

  <!-- Text glow layer -->
  <text x="256" y="478" text-anchor="middle"
        font-family="'SF Mono', 'Fira Code', 'JetBrains Mono', 'Cascadia Code', 'Consolas', monospace"
        font-size="36" font-weight="500" letter-spacing="4"
        fill="#4DD9FF" opacity="0.35" filter="url(#textGlow)">td</text>

  <!-- Crisp text -->
  <text x="256" y="478" text-anchor="middle"
        font-family="'SF Mono', 'Fira Code', 'JetBrains Mono', 'Cascadia Code', 'Consolas', monospace"
        font-size="36" font-weight="500" letter-spacing="4"
        fill="#4DD9FF" opacity="0.85">td</text>

  <!-- Subtle underline accent -->
  <line x1="226" y1="488" x2="286" y2="488" stroke="#4DD9FF" stroke-width="0.8" opacity="0.20"/>

</svg>